A1																		
version=1																		
nRows=22
nColumns=19																		
inDegrees=yes																		
endheader
time	ground_force1_vx	ground_force1_vy	ground_force1_vz	ground_force1_px	ground_force1_py	ground_force1_pz	ground_torque1_x	ground_torque1_y	ground_torque1_z	ground_force2_vx	ground_force2_vy	ground_force2_vz	ground_force2_px	ground_force2_py	ground_force2_pz	ground_torque2_x	ground_torque2_y	ground_torque2_z
195.87500000	0.00000000	0.00000000	0.00000000	0.88900000	0.00000000	-0.84017500	0.00000000	0.00000000	0.00000000	-47.48982894	795.33044545	-54.40686792	1.09753069	0.00000000	-0.48263282	0.00001870	-0.33208665	0.00005084
195.87600000	0.00000000	0.00000000	0.00000000	0.88900000	0.00000000	-0.84017500	0.00000000	0.00000000	0.00000000	-46.77640454	792.48700055	-54.26089138	1.09676084	0.00000000	-0.48260473	0.00001866	-0.33289482	0.00005044
195.87700000	0.00000000	0.00000000	0.00000000	0.88900000	0.00000000	-0.84017500	0.00000000	0.00000000	0.00000000	-46.06805040	789.61091006	-54.11423551	1.09598924	0.00000000	-0.48257309	0.00001861	-0.33360312	0.00005003
195.87800000	0.00000000	0.00000000	0.00000000	0.88900000	0.00000000	-0.84017500	0.00000000	0.00000000	0.00000000	-45.36488295	786.70397297	-53.96691155	1.09521587	0.00000000	-0.48253789	0.00001856	-0.33421825	0.00004961
195.87900000	0.00000000	0.00000000	0.00000000	0.88900000	0.00000000	-0.84017500	0.00000000	0.00000000	0.00000000	-44.66701226	783.76799633	-53.81893057	1.09444069	0.00000000	-0.48249914	0.00001852	-0.33474693	0.00004920
195.88000000	0.00000000	0.00000000	0.00000000	0.88900000	0.00000000	-0.84017500	0.00000000	0.00000000	0.00000000	-43.97454201	780.80479397	-53.67030357	1.09366368	0.00000000	-0.48245687	0.00001848	-0.33519595	0.00004877
195.88100000	0.00000000	0.00000000	0.00000000	0.88900000	0.00000000	-0.84017500	0.00000000	0.00000000	0.00000000	-43.28756959	777.81618537	-53.52104164	1.09288482	0.00000000	-0.48241108	0.00001844	-0.33557209	0.00004834
195.88200000	0.00000000	0.00000000	0.00000000	0.88900000	0.00000000	-0.84017500	0.00000000	0.00000000	0.00000000	-42.60618609	774.80399434	-53.37115607	1.09210410	0.00000000	-0.48236179	0.00001840	-0.33588221	0.00004791
195.88300000	0.00000000	0.00000000	0.00000000	0.88900000	0.00000000	-0.84017500	0.00000000	0.00000000	0.00000000	-41.93047634	771.77004785	-53.22065844	1.09132150	0.00000000	-0.48230904	0.00001837	-0.33613312	0.00004748
195.88400000	0.00000000	0.00000000	0.00000000	0.88900000	0.00000000	-0.84017500	0.00000000	0.00000000	0.00000000	-41.26051898	768.71617476	-53.06956079	1.09053703	0.00000000	-0.48225285	0.00001833	-0.33633169	0.00004704
195.88500000	0.00000000	0.00000000	0.00000000	0.88900000	0.00000000	-0.84017500	0.00000000	0.00000000	0.00000000	-40.59638645	765.64420464	-52.91787568	1.08975067	0.00000000	-0.48219325	0.00001830	-0.33648474	0.00004660
195.88600000	0.00000000	0.00000000	0.00000000	0.88900000	0.00000000	-0.84017500	0.00000000	0.00000000	0.00000000	-39.93814507	762.55596649	-52.76561631	1.08896244	0.00000000	-0.48213027	0.00001827	-0.33659910	0.00004615
195.88700000	0.00000000	0.00000000	0.00000000	0.88900000	0.00000000	-0.84017500	0.00000000	0.00000000	0.00000000	-39.28585510	759.45328754	-52.61279664	1.08817232	0.00000000	-0.48206397	0.00001824	-0.33668157	0.00004571
195.88800000	0.00000000	0.00000000	0.00000000	0.88900000	0.00000000	-0.84017500	0.00000000	0.00000000	0.00000000	-38.63957074	756.33799206	-52.45943148	1.08738034	0.00000000	-0.48199438	0.00001821	-0.33673892	0.00004526
195.88900000	0.00000000	0.00000000	0.00000000	0.88900000	0.00000000	-0.84017500	0.00000000	0.00000000	0.00000000	-37.99934027	753.21190009	-52.30553656	1.08658650	0.00000000	-0.48192154	0.00001818	-0.33677786	0.00004481
195.89000000	0.00000000	0.00000000	0.00000000	0.88900000	0.00000000	-0.84017500	0.00000000	0.00000000	0.00000000	-37.36520602	750.07682631	-52.15112867	1.08579083	0.00000000	-0.48184550	0.00001815	-0.33680508	0.00004436
195.89100000	0.00000000	0.00000000	0.00000000	0.88900000	0.00000000	-0.84017500	0.00000000	0.00000000	0.00000000	-36.73720450	746.93457878	-51.99622568	1.08499332	0.00000000	-0.48176632	0.00001813	-0.33682720	0.00004391
195.89200000	0.00000000	0.00000000	0.00000000	0.88900000	0.00000000	-0.84017500	0.00000000	0.00000000	0.00000000	-36.11536644	743.78695779	-51.84084668	1.08419402	0.00000000	-0.48168404	0.00001810	-0.33685075	0.00004346
195.89300000	0.00000000	0.00000000	0.00000000	0.88900000	0.00000000	-0.84017500	0.00000000	0.00000000	0.00000000	-35.49971685	740.63575467	-51.68501202	1.08339293	0.00000000	-0.48159873	0.00001808	-0.33688222	0.00004301
195.89400000	0.00000000	0.00000000	0.00000000	0.88900000	0.00000000	-0.84017500	0.00000000	0.00000000	0.00000000	-34.89027511	737.48275064	-51.52874337	1.08259009	0.00000000	-0.48151044	0.00001806	-0.33692801	0.00004256
195.89500000	0.00000000	0.00000000	0.00000000	0.88900000	0.00000000	-0.84017500	0.00000000	0.00000000	0.00000000	-34.28705506	734.32971568	-51.37206382	1.08178552	0.00000000	-0.48141923	0.00001804	-0.33699443	0.00004211
195.89600000	0.00000000	0.00000000	0.00000000	0.88900000	0.00000000	-0.84017500	0.00000000	0.00000000	0.00000000	-33.69006504	731.17840735	-51.21499791	1.08097925	0.00000000	-0.48132517	0.00001802	-0.33708768	0.00004166
